<svg xmlns="http://www.w3.org/2000/svg" xmlns:xlink="http://www.w3.org/1999/xlink" width="50" height="64" viewBox="0 0 50 64">
    <defs>
        <path id="a" d="M0 .149h49.5v63.394H0z"/>
    </defs>
    <g fill="none" fill-rule="evenodd">
        <g>
            <mask id="b" fill="#fff">
                <use xlink:href="#a"/>
            </mask>
            <path fill="#004F9E" d="M49.5 49.807V.15H0v63.394h37.124c6.835 0 12.375-6.15 12.375-13.736" mask="url(#b)"/>
        </g>
        <path fill="#FFF" d="M22.349 9.269H11.922l-.07.555c-.12.964.572 2.086 2.921 2.086h5.74c1.71 0 1.681.406 1.444 1.403 0 0-.897 3.767-1.175 4.922h-6.758c-.492 0-1.288-.128-1.084-.981.21-.877 1.058-1.063 1.733-1.063h4.06l2.464-2.604h-6.506c-4.783 0-5.916 2.588-6.18 3.702-.519 2.167.81 3.566 3.379 3.566h11.129c1.047 0 1.675-.498 1.919-1.516l1.493-6.26c.754-3.166-1.086-3.81-4.082-3.81M11.2 50.74l-.01.116c-.013.166-.019.327-.019.482 0 .018.003.053.01.106.006.052.01.117.01.191v.039c0 .038-.014.056-.041.056-.026 0-.048-.021-.069-.065a.446.446 0 0 0-.138-.185 1.38 1.38 0 0 1-.858.272c-.485 0-.887-.148-1.207-.442a1.452 1.452 0 0 1-.478-1.114c0-.451.147-.82.439-1.105.292-.286.67-.429 1.133-.429.168 0 .303.013.404.037.1.024.225.073.373.148a.414.414 0 0 0 .164.056c.03 0 .058-.022.084-.068.043-.081.078-.122.105-.122.025 0 .04.012.04.035 0 .012-.004.03-.011.056-.037.138-.054.397-.054.776 0 .055-.005.086-.016.095a.058.058 0 0 1-.04.012c-.032 0-.053-.026-.064-.081-.042-.23-.104-.401-.183-.513-.162-.23-.416-.345-.764-.345-.267 0-.478.077-.633.232-.281.28-.421.688-.421 1.225 0 .48.115.851.346 1.115.201.23.47.345.804.345.17 0 .328-.036.47-.11a.8.8 0 0 0 .327-.3c.086-.146.146-.305.183-.477.013-.069.035-.104.064-.104.033 0 .05.022.05.065"/>
        <path fill="#FFF" d="M11.574 50.114c-.01-.402-.117-.604-.323-.604-.202 0-.329.202-.379.604h.702zm.326 1.028a.534.534 0 0 1-.058.18 1.16 1.16 0 0 1-.118.208.51.51 0 0 1-.432.222c-.225 0-.413-.11-.565-.328-.151-.218-.227-.489-.227-.812 0-.335.072-.615.216-.84.144-.224.323-.338.539-.338.178 0 .327.07.446.21a.84.84 0 0 1 .192.536 1.37 1.37 0 0 1-.32.02h-.262l-.45.015c-.013.11-.019.216-.019.316 0 .338.048.598.144.78.097.183.232.274.408.274.1 0 .18-.03.24-.09.06-.061.125-.177.195-.348.01-.026.024-.04.041-.04.02 0 .03.012.03.035zM14 49.785c0 .08-.02.146-.06.197a.185.185 0 0 1-.151.078.165.165 0 0 1-.127-.054.195.195 0 0 1-.051-.137c0-.049.012-.09.038-.125.025-.034.038-.058.038-.072 0-.051-.031-.078-.093-.078-.079 0-.147.061-.203.18-.065.141-.098.402-.098.783v1.019c0 .041.012.067.036.077.025.01.097.017.219.02.03.008.046.021.046.043 0 .023-.018.036-.055.036H12.718c-.045 0-.068-.011-.068-.031 0-.021.018-.032.055-.032h.06c.095 0 .152-.014.169-.042.005-.013.008-.077.008-.192v-1.43c0-.19-.022-.3-.07-.329a.443.443 0 0 0-.222-.05c-.033 0-.05-.012-.05-.036 0-.024.013-.037.041-.037h.03a1.08 1.08 0 0 1 .182.016c.104 0 .22-.036.347-.108l.056-.031.033-.016c.011.083.017.165.017.249v.102c.09-.234.217-.35.381-.35.09 0 .165.032.224.1.06.067.089.151.089.25M14.7 50.67c0 .025-.02.072-.059.138-.067.114-.147.171-.24.171-.087 0-.152-.04-.196-.122-.025-.047-.038-.183-.038-.41v-1.296c-.002-.03-.01-.045-.026-.048h-.09c-.034 0-.051-.01-.051-.03 0-.021.008-.033.025-.036.122-.02.218-.132.286-.335.01-.027.021-.04.036-.04.01 0 .016.01.016.03v.092c0 .123.003.201.01.236a.19.19 0 0 0 .07.008.432.432 0 0 0 .189-.026c.012 0 .018.013.018.038 0 .042-.063.063-.19.063h-.097v.807c0 .407.005.662.017.765.01.103.046.156.108.156.052 0 .11-.055.174-.162.007-.015.014-.022.021-.022.012 0 .017.007.017.022M15.86 48.095c0 .137-.05.205-.146.205-.04 0-.074-.019-.102-.057a.235.235 0 0 1-.042-.139c0-.144.048-.214.144-.214.097 0 .145.067.145.205m.241 2.843c0 .027-.018.041-.055.041l-.077-.01a1.805 1.805 0 0 0-.16-.008h-.334a.051.051 0 0 1-.039.018c-.023 0-.035-.012-.035-.034 0-.032.021-.048.064-.048.081-.003.126-.011.133-.025a.766.766 0 0 0 .012-.19V49.3a1.084 1.084 0 0 0-.008-.134c-.004-.013-.017-.02-.04-.02h-.126c-.023 0-.035-.011-.035-.033 0-.018.018-.029.054-.032a.603.603 0 0 0 .364-.142l.031-.026a.81.81 0 0 1 .026.25V50.628c0 .122.001.193.005.214.003.022.014.035.034.042.031.011.079.017.14.017.03 0 .046.013.046.037M18.2 48.994c0 .061-.017.111-.05.15a.163.163 0 0 1-.132.06.18.18 0 0 1-.131-.052.183.183 0 0 1-.052-.132c0-.043.018-.094.052-.152a.078.078 0 0 0 .013-.04c0-.067-.044-.1-.133-.1-.15 0-.25.104-.297.314a3.071 3.071 0 0 0-.037.581v.214h.264c.054 0 .08.013.08.037 0 .025-.034.037-.103.037h-.24v1.713c0 .042.036.062.11.062.116-.003.179.002.19.017.002.003.003.009.003.018 0 .02-.016.03-.048.03a.163.163 0 0 1-.041-.004l-.333.005h-.442c-.049 0-.073-.01-.073-.03 0-.024.02-.036.058-.036.14 0 .216-.009.23-.027.005-.005.008-.013.008-.025l-.004-.057v-1.66c-.1 0-.158-.002-.174-.006-.017-.002-.025-.013-.025-.034 0-.027.025-.04.073-.04h.13c.011-.37.057-.636.138-.799.125-.25.312-.376.56-.376.119 0 .216.03.292.092.076.061.114.14.114.24"/>
        <path fill="#FFF" d="M17.96 48.095c0 .137-.049.205-.145.205a.123.123 0 0 1-.103-.057.232.232 0 0 1-.042-.139c0-.144.048-.214.145-.214.096 0 .144.067.144.205m.241 2.843c0 .027-.018.041-.055.041l-.077-.01a1.805 1.805 0 0 0-.16-.008h-.334a.052.052 0 0 1-.039.018c-.023 0-.035-.012-.035-.034 0-.032.021-.048.064-.048.081-.003.126-.011.133-.025a.738.738 0 0 0 .012-.19V49.3a1.14 1.14 0 0 0-.008-.134c-.004-.013-.017-.02-.04-.02h-.126c-.023 0-.035-.011-.035-.033 0-.018.018-.029.054-.032a.605.605 0 0 0 .364-.142l.032-.026a.81.81 0 0 1 .025.25V50.628c0 .122.002.193.005.214.003.022.014.035.034.042.032.011.079.017.141.017.03 0 .045.013.045.037M19.6 49.953c0 .154-.058.232-.173.232-.113 0-.17-.071-.17-.212 0-.037.014-.092.04-.166a.23.23 0 0 0 .01-.07.207.207 0 0 0-.078-.166.296.296 0 0 0-.198-.066c-.154 0-.274.088-.358.261-.085.175-.127.421-.127.737 0 .355.043.63.13.823.088.193.21.29.37.29a.391.391 0 0 0 .289-.131c.038-.04.088-.118.15-.232.012-.017.024-.025.034-.025.026 0 .04.013.04.04 0 .044-.046.126-.136.247a.527.527 0 0 1-.442.237c-.226 0-.412-.107-.56-.317-.148-.212-.221-.48-.221-.801 0-.346.078-.632.235-.86.156-.226.352-.34.588-.34.151 0 .285.053.402.157a.473.473 0 0 1 .175.362M21.07 50.93v-.368c-.177.058-.303.132-.38.224a.567.567 0 0 0-.114.37c0 .108.021.197.065.265.044.07.098.104.164.104.101 0 .182-.08.244-.242.014-.037.02-.155.02-.353m.631.534c0 .057-.042.117-.127.179a.413.413 0 0 1-.244.093c-.163 0-.249-.119-.256-.357-.09.248-.23.373-.42.373a.307.307 0 0 1-.253-.129.521.521 0 0 1-.1-.33c0-.276.117-.494.351-.654.08-.055.22-.108.419-.162v-.126c0-.295-.011-.49-.032-.585-.039-.17-.125-.256-.258-.256a.267.267 0 0 0-.21.096.353.353 0 0 0-.084.242c0 .027.014.04.044.04s.055.02.079.06c.023.04.035.086.035.136 0 .147-.052.222-.156.222-.055 0-.1-.026-.134-.078a.344.344 0 0 1-.054-.2c0-.157.044-.294.132-.407a.492.492 0 0 1 .409-.187c.262 0 .423.101.483.303.022.077.032.23.032.458v.942c0 .154.001.245.004.272.012.12.046.181.103.181.067 0 .122-.033.165-.1.024-.037.042-.056.054-.056.012 0 .018.01.018.03M22.4 50.67a.36.36 0 0 1-.059.138c-.068.114-.148.171-.24.171-.087 0-.152-.04-.196-.122-.025-.047-.038-.183-.038-.41v-1.296c-.001-.03-.01-.045-.025-.048h-.09c-.035 0-.052-.01-.052-.03 0-.021.008-.033.026-.036.122-.02.217-.132.285-.335.01-.027.022-.04.035-.04.011 0 .017.01.017.03v.092c0 .123.003.201.01.236a.19.19 0 0 0 .07.008.428.428 0 0 0 .188-.026c.013 0 .02.013.02.038 0 .042-.064.063-.191.063h-.097v.807c0 .407.006.662.016.765.011.103.048.156.109.156.052 0 .11-.055.174-.162.007-.015.014-.022.022-.022.01 0 .016.007.016.022"/>
        <path fill="#FFF" d="M22.86 48.095c0 .137-.049.205-.145.205a.123.123 0 0 1-.103-.057.232.232 0 0 1-.042-.139c0-.144.048-.214.145-.214.096 0 .144.067.144.205m.241 2.843c0 .027-.018.041-.055.041l-.077-.01a1.805 1.805 0 0 0-.16-.008h-.334a.052.052 0 0 1-.039.018c-.023 0-.035-.012-.035-.034 0-.032.021-.048.064-.048.081-.003.126-.011.133-.025a.738.738 0 0 0 .012-.19V49.3a1.14 1.14 0 0 0-.008-.134c-.004-.013-.017-.02-.04-.02h-.126c-.023 0-.035-.011-.035-.033 0-.018.018-.029.054-.032a.605.605 0 0 0 .364-.142l.032-.026a.81.81 0 0 1 .025.25V50.628c0 .122.002.193.005.214.003.022.014.035.034.042.032.011.079.017.141.017.03 0 .045.013.045.037M25.596 50.598c0-.37-.038-.657-.114-.861-.056-.15-.149-.227-.28-.227-.125 0-.222.097-.293.29-.07.193-.105.46-.105.803 0 .34.037.604.112.794.075.19.179.283.313.283.102 0 .177-.058.226-.176.094-.221.141-.523.141-.906m.304.005c0 .326-.066.599-.197.818-.131.22-.296.33-.491.33-.203 0-.373-.11-.508-.33-.136-.22-.204-.492-.204-.818 0-.336.066-.614.199-.837.133-.22.297-.332.496-.332.2 0 .368.112.503.335.135.224.202.502.202.834M28 51.713c0 .025-.022.039-.067.039H27.114c-.038 0-.058-.013-.058-.036 0-.018.01-.028.025-.031.017-.004.074-.007.172-.011.056-.004.089-.013.097-.028a.553.553 0 0 0 .013-.167v-.986c0-.373-.012-.596-.035-.667-.05-.155-.151-.232-.303-.232-.148 0-.273.076-.373.226a.333.333 0 0 0-.045.185v1.603c0 .04.032.062.095.066l.136.006c.03 0 .045.011.045.036 0 .023-.017.036-.053.036H26.02c-.045 0-.066-.011-.066-.032 0-.022.026-.034.08-.041h.11c.045 0 .072-.012.08-.035l.013-.078v-1.12c0-.39-.002-.604-.008-.645-.006-.042-.043-.062-.112-.062h-.128c-.06 0-.089-.013-.089-.039 0-.033.031-.05.093-.05.09-.003.185-.021.29-.056a.526.526 0 0 0 .218-.118c.026-.027.047-.042.062-.042.02 0 .031.033.031.099v.247c.154-.23.353-.346.596-.346.214 0 .368.092.463.273.054.104.08.299.08.588v1.173c0 .11.005.17.013.18.019.02.06.03.13.03h.079c.03 0 .045.013.045.035M30.381 50.694c0-.27-.046-.478-.137-.624a.425.425 0 0 0-.382-.219.447.447 0 0 0-.245.075.39.39 0 0 0-.157.187c-.029.074-.042.301-.042.68 0 .395.01.63.033.704.034.12.146.181.337.181.182 0 .316-.064.403-.193.126-.193.19-.456.19-.791m.419-.02c0 .299-.097.553-.29.763a.922.922 0 0 1-.7.315.911.911 0 0 1-.3-.056.782.782 0 0 0-.211-.056.225.225 0 0 0-.116.04c-.042.028-.075.04-.097.04-.024 0-.036-.047-.036-.14v-2.242c0-.29-.02-.447-.06-.47a.648.648 0 0 0-.18-.012c-.073 0-.11-.012-.11-.035 0-.02.016-.03.05-.03h.065c.169 0 .332-.034.488-.099a.288.288 0 0 1 .096-.03h.019v1.353c.117-.164.292-.246.525-.246.258 0 .465.083.622.248.156.165.235.384.235.657"/>
        <path fill="#FFF" d="M32.2 49.466c0 .021-.037.033-.111.036a.501.501 0 0 0-.143.018c-.02.01-.038.035-.053.078l-.033.08-.037.112-.196.608a34.609 34.609 0 0 1-.61 1.75c-.1.25-.236.376-.41.376a.275.275 0 0 1-.184-.062.201.201 0 0 1-.071-.16c0-.056.019-.102.058-.138a.216.216 0 0 1 .15-.052c.084 0 .145.032.183.097.027.05.051.075.07.075.027 0 .07-.072.13-.216.086-.217.155-.41.204-.583a78.08 78.08 0 0 1-.586-1.504c-.112-.293-.175-.441-.187-.444-.019-.015-.069-.023-.15-.023-.083 0-.124-.014-.124-.043 0-.024.02-.037.06-.037.035 0 .087.003.159.01.07.006.126.008.162.008h.084l.27-.011.238-.007c.034 0 .05.013.05.039 0 .021-.056.034-.17.037-.097.003-.145.018-.145.044 0 .023.03.113.095.27.024.07.05.14.078.214l.08.221a11.22 11.22 0 0 0 .275.703c.298-.89.446-1.358.446-1.403 0-.026-.01-.043-.034-.048a1.129 1.129 0 0 0-.199-.01c-.032 0-.048-.012-.048-.035 0-.02.02-.032.056-.032a.09.09 0 0 1 .037.007c.107.008.193.01.261.01h.131a.428.428 0 0 0 .109-.007.182.182 0 0 1 .063-.01c.028 0 .042.011.042.032M13.661 55.146l-.042.173-.005.02c-.017.068-.05.118-.147.118h-.284c-.1 0-.1-.056-.087-.107l.008-.032.041-.167c.017-.069.044-.128.14-.128h.3c.1 0 .093.055.076.123m.076-.305h-2.264l-.128.519c-.017.068-.029.096-.15.096h-.263c-.121 0-.12-.028-.102-.096l.128-.519h-.204c-.074 0-.118.035-.136.105l-.106.43c-.046.184.036.26.284.262h.44c.213 0 .365-.045.42-.262l.084-.346h.4l-.127.505c-.002.008-.01.046.014.074.015.02.04.029.075.029h.087a.143.143 0 0 0 .14-.104l.127-.504h.41a.529.529 0 0 0-.023.073l-.065.262c-.05.202.042.273.251.273h.49c.232 0 .348-.053.407-.291l.057-.23c.046-.187.009-.276-.246-.276"/>
        <path fill="#FFF" d="M13.188 54.069c-.835 0-1.219.154-1.468.307-.249.153-.514.331-.832.35-.344.02-.819.02-1.16.084-.766.142-1.19.559-1.3.753a.448.448 0 0 0-.028.05h.645a1.16 1.16 0 0 1 .675-.472c.466-.11.99-.047 1.245-.087.219-.04.4-.118.694-.323.311-.216.569-.374 1.11-.426.624-.06 1.901-.05 1.901-.05l.03-.116s-1.33-.07-1.512-.07"/>
        <path fill="#FFF" d="M10.173 54.841h-.801l-.007.038c-.009.063.044.139.225.139h.442c.13 0 .129.027.11.093l-.09.328h-.52c-.037 0-.099-.009-.082-.065.015-.058.081-.071.133-.071h.312l.189-.173h-.5c-.368 0-.455.172-.476.246-.04.145.063.238.26.238h.857c.08 0 .129-.033.147-.101l.115-.418c.058-.211-.083-.254-.314-.254M15.502 55.557h-.344c-.065 0-.109-.011-.136-.034-.033-.03-.025-.066-.015-.091l.107-.287h.529c.063 0 .105.01.13.032.037.032.02.077.01.106l-.058.155c-.02.052-.063.119-.223.119zm-.787-.098c-.023.062-.02.105.012.132.036.032.116.047.245.047h.593c.254 0 .378-.03.445-.209l.069-.184c.026-.071.03-.11-.003-.139-.04-.034-.081-.042-.217-.042h-.712l.067-.181s.006-.02-.008-.03c-.012-.01-.036-.012-.055-.012h-.105a.172.172 0 0 0-.08.017.086.086 0 0 0-.043.041l-.208.56zM17.961 54.841a.198.198 0 0 0-.083.016c-.034.017-.044.039-.045.04l-.267.676s-.008.019.007.03c.013.009.038.01.057.01h.109c.032 0 .06-.004.082-.015.036-.017.045-.04.045-.041l.268-.674s.008-.019-.007-.03c-.012-.01-.038-.012-.057-.012h-.109zM18.661 54.841a.197.197 0 0 0-.083.016c-.034.016-.044.039-.045.04l-.267.676s-.007.019.007.03c.013.009.038.01.057.01h.108c.033 0 .06-.004.084-.015.035-.017.044-.04.045-.041l.267-.674s.008-.02-.007-.03c-.013-.01-.038-.012-.057-.012h-.109zM17.47 54.913c-.039-.046-.118-.072-.22-.072h-.631c-.247 0-.366.036-.425.25l-.08.294c-.021.076-.018.129.01.162.04.046.13.067.292.067h.846l.001-.005a.066.066 0 0 0-.019-.055c-.03-.032-.095-.05-.183-.05h-.49c-.075 0-.131-.007-.16-.041-.03-.035-.018-.078-.008-.117l.062-.225c.014-.051.047-.171.214-.171h.388c.057 0 .1.014.123.042.014.015.026.042.015.083-.01.042-.052.111-.193.111h-.371l-.117.107h.487c.374 0 .46-.168.48-.241.017-.057.01-.104-.02-.14M19.214 54.841c-.173 0-.314.16-.314.357 0 .198.14.357.314.357.173 0 .314-.16.314-.357 0-.197-.14-.357-.314-.357m.159.357c0 .1-.072.18-.159.18-.087 0-.159-.08-.159-.18 0-.1.072-.179.16-.179.086 0 .157.08.157.18"/>
    </g>
</svg>
