<svg xmlns="http://www.w3.org/2000/svg" viewBox="0 0 32 32">
    <g data-name="ico_gnb_cart">
        <g data-name="Path 410" style="stroke-linejoin:round;fill:none">
            <path d="M2.609 0h13.916l2.609 15.421H0z" style="stroke:none" transform="translate(6.434 10.34)"/>
            <path d="M2.61 0 0 15.421h19.135L16.525 0H2.61m0-1.3h13.916a1.3 1.3 0 0 1 1.282 1.083l2.61 15.421a1.3 1.3 0 0 1-1.282 1.517H0a1.3 1.3 0 0 1-1.282-1.517l2.61-15.42A1.3 1.3 0 0 1 2.609-1.3z" style="fill:#000;stroke:none" transform="translate(6.434 10.34)"/>
        </g>
        <g data-name="Subtraction 6" style="fill:none">
            <path d="M23653.975 19531h-8.945a4.643 4.643 0 0 1-.027-.5 4.5 4.5 0 0 1 9 0c0 .168-.01.336-.025.5z" style="stroke:none" transform="translate(-23633.566 -19520.66)"/>
            <path d="M23652.6 19529.7a3.203 3.203 0 0 0-3.098-2.397 3.203 3.203 0 0 0-3.098 2.396h6.196m1.375 1.301h-8.946a4.506 4.506 0 0 1 4.473-4.998 4.506 4.506 0 0 1 4.475 4.996l-.002.002z" style="fill:#000;stroke:none" transform="translate(-23633.566 -19520.66)"/>
        </g>
    </g>
</svg>
