<svg xmlns="http://www.w3.org/2000/svg" viewBox="0 0 16 16">
    <path d="M678.717 370.01a3.1 3.1 0 0 1 2.283 1.01 3.765 3.765 0 0 1 .009 5.1l-.7.751-5.314 5.677-5.315-5.678-.694-.74a3.773 3.773 0 0 1 0-5.109c.065-.071.133-.139.2-.2a3.087 3.087 0 0 1 4.372.214l.7.75.729.777.729-.777.714-.761c.065-.071.133-.139.2-.2a3.078 3.078 0 0 1 2.078-.806m0-1a4.071 4.071 0 0 0-2.752 1.066q-.141.128-.269.269l-.7.75-.7-.75a4.087 4.087 0 0 0-5.775-.269q-.141.128-.269.269a4.791 4.791 0 0 0 0 6.457l.7.75 6.044 6.457 6.044-6.457.7-.75a4.788 4.788 0 0 0 0-6.457 4.076 4.076 0 0 0-3.023-1.335z" transform="translate(-666.993 -369.01)" style="fill:rgba(0,0,0,0.2)" />
    <path data-name="Heart fill" d="M678.717 369.01a4.071 4.071 0 0 0-2.752 1.066q-.141.128-.269.269l-.7.75-.7-.75a4.087 4.087 0 0 0-5.775-.269q-.141.128-.269.269a4.791 4.791 0 0 0 0 6.457l.7.75 6.044 6.457 6.044-6.457.7-.75a4.788 4.788 0 0 0 0-6.457 4.076 4.076 0 0 0-3.023-1.335z" transform="translate(-666.993 -369.01)" style="fill:rgba(0,0,0,0)"/>
</svg>
