<svg xmlns="http://www.w3.org/2000/svg" viewBox="0 0 114 50">
    <path data-name="Union 69" d="M20.1 35.891v-1.432h18.153v1.432zM85.291 34.2a3.838 3.838 0 0 1-1.6-2.021 8.975 8.975 0 0 1-.459-3v-6.233a9.288 9.288 0 0 1 .459-3.09 3.737 3.737 0 0 1 1.6-2 5.9 5.9 0 0 1 3.1-.707 6 6 0 0 1 2.977.622 3.431 3.431 0 0 1 1.532 1.754 7.157 7.157 0 0 1 .446 2.631v1.454h-3.491v-1.626a9.158 9.158 0 0 0-.065-1.123 1.537 1.537 0 0 0-.361-.854 1.3 1.3 0 0 0-1.015-.333 1.388 1.388 0 0 0-1.043.343 1.6 1.6 0 0 0-.413.889 7.389 7.389 0 0 0-.09 1.206v7.871a5.831 5.831 0 0 0 .122 1.272 1.289 1.289 0 0 0 1.424 1.122 1.28 1.28 0 0 0 .993-.33 1.632 1.632 0 0 0 .37-.888 8.343 8.343 0 0 0 .077-1.177v-1.69h3.487v1.433a7.636 7.636 0 0 1-.437 2.685 3.639 3.639 0 0 1-1.5 1.838 5.637 5.637 0 0 1-3.009.674 5.743 5.743 0 0 1-3.104-.722zm-46.518-3.676v-1.038h3.075v1.038a1.425 1.425 0 0 0 1.463 1.544c.894 0 1.386-.549 1.386-1.544 0-1.291-1.015-2.225-2.3-3.407l-.151-.141c-1.746-1.456-3.367-3.107-3.367-5.276a4.477 4.477 0 0 1 4.748-4.7 4.161 4.161 0 0 1 4.3 4.3v.9h-3.071v-1.028a1.23 1.23 0 0 0-1.229-1.36 1.3 1.3 0 0 0-1.308 1.388c0 1.286.835 2.046 1.89 3 .184.169.379.344.583.536 1.49 1.323 3.345 2.97 3.345 5.416a4.47 4.47 0 0 1-4.643 4.7c-2.955.002-4.721-1.616-4.721-4.328zM95.4 34.687v-17.32h7.693V19.8h-4.1v4.6h3.161v2.46h-3.163v5.431h4.142v2.4zm-16.767 0L74.7 25.108v9.579h-3.068v-17.32h2.5l3.923 9.021v-9.021h2.964v17.32zm-12.17 0-.631-3.806h-2.793l-.678 3.806h-3.376l3.422-17.32h3.987l3.4 17.32zM63.37 28.72h2.11l-1.067-6.991zm-11.089 5.967V20h-2.724v-2.633h9.021V20H55.9v14.69zM10 34.459V17.368h4.905a4.339 4.339 0 0 1 4.671 4.489v8.429c0 2.613-1.746 4.173-4.671 4.173zm3.6-2.866h1.018c.619 0 1.358-.272 1.358-1.569V21.8c0-1.025-.458-1.544-1.358-1.544H13.6z"/>
</svg>
