<?xml version="1.0" encoding="utf-8"?>
<!-- Generator: Adobe Illustrator 26.2.1, SVG Export Plug-In . SVG Version: 6.00 Build 0)  -->
<svg version="1.1" id="Layer_1" xmlns="http://www.w3.org/2000/svg" xmlns:xlink="http://www.w3.org/1999/xlink" x="0px" y="0px"
	 viewBox="0 0 105 50" style="enable-background:new 0 0 105 50;" xml:space="preserve">
<style type="text/css">
	.st0{fill:#FFFFFF;}
	.st1{fill:none;}
	.st2{fill:#F5F5F5;}
</style>
<g>
	<g transform="translate(5993 153.766)">
		<path class="st0" d="M-5927-102.8h-334.6v-51h266.4c2.9,0,13.3-0.1,21.4,4.4s11.8,11.1,14.6,19.1c2.5,7.3,7.5,13.6,14,17.6
			c5.1,3.1,11,4.8,17,4.9h0.5c6-0.1,11.9-1.7,17-4.9c6.6-4.1,11.6-10.3,14-17.6c2.7-8,6.6-14.6,14.6-19.1s18.4-4.4,21.4-4.4h6.4v51
			L-5927-102.8z"/>
		<g>
			<path class="st1" d="M-5927-102.8h-334.6v-51h266.4c2.9,0,13.3-0.1,21.4,4.4s11.8,11.1,14.6,19.1c2.5,7.3,7.5,13.6,14,17.6
				c5.1,3.1,11,4.8,17,4.9h0.5c6-0.1,11.9-1.7,17-4.9c6.6-4.1,11.6-10.3,14-17.6c2.7-8,6.6-14.6,14.6-19.1s18.4-4.4,21.4-4.4h6.4v51
				L-5927-102.8z"/>
			<path class="st2" d="M-5855.4-103.8v-49h-5.6c-1.4,0-4.8,0-8.7,0.6c-4.7,0.7-8.7,1.9-11.9,3.7c-3.7,2-6.6,4.6-9,7.9
				c-2,2.8-3.7,6.2-5.2,10.6c-1.3,3.9-3.3,7.5-5.9,10.7c-2.4,2.9-5.3,5.5-8.5,7.4c-2.9,1.7-6,3.1-9.2,3.9c-2.7,0.7-5.5,1.1-8.3,1.1
				h-0.5c-2.8,0-5.6-0.4-8.3-1.1c-3.2-0.8-6.3-2.1-9.2-3.9c-3.2-2-6.1-4.5-8.5-7.4c-2.6-3.2-4.6-6.8-6-10.7
				c-1.5-4.4-3.2-7.8-5.2-10.6c-2.4-3.3-5.3-5.9-9-7.9c-3.2-1.8-7.2-3.1-11.9-3.7c-3.9-0.6-7.3-0.6-8.7-0.6h-265.6v49L-5855.4-103.8
				 M-5854.4-102.8h-407.3v-51h266.6c3.3,0,13.3,0.1,21.1,4.4c8,4.5,11.8,11.1,14.6,19.1c2.8,8,8,13.9,14,17.6
				c5.9,3.6,12.2,4.8,17,4.9h0.5c4.8-0.1,11-1.2,17-4.9c6.1-3.7,11.3-9.7,14-17.6c2.7-8,6.6-14.6,14.6-19.1
				c7.8-4.4,17.9-4.4,21.1-4.4h6.6L-5854.4-102.8L-5854.4-102.8z"/>
		</g>
	</g>
</g>
</svg>
