<svg xmlns="http://www.w3.org/2000/svg" xmlns:xlink="http://www.w3.org/1999/xlink" width="97" height="82" viewBox="0 0 97 82">
    <defs>
        <path id="a" d="M0 .1h96V81.48H0z"/>
    </defs>
    <g fill="none" fill-rule="evenodd" transform="translate(.5)">
        <mask id="b" fill="#fff">
            <use xlink:href="#a"/>
        </mask>
        <path fill="#3F64C3" d="M90.373 60.134c0 .839-.68 1.522-1.517 1.522h-26.76V46.414H33.903v15.242H7.144a1.521 1.521 0 0 1-1.517-1.522V40.76c0-2.543 2.062-4.612 4.595-4.612h75.556c2.533 0 4.595 2.069 4.595 4.612v19.374zm-6.555 12.14a3.56 3.56 0 0 1-3.549 3.561h-3.78a3.56 3.56 0 0 1-3.549-3.561V67.3h10.878v4.973zm-44.29-10.618h16.943V52.06H39.528v9.596zM23.06 72.274a3.56 3.56 0 0 1-3.548 3.561h-3.78a3.56 3.56 0 0 1-3.549-3.561V67.3H23.06v4.973zm-.28-66.529H73.22l9.012 24.758H13.767L22.78 5.745zM96 25.816v-5.645H84.46L77.154.1H18.846L11.54 20.17H0v5.646h9.485L7.66 30.83a10.268 10.268 0 0 0-7.658 9.93v19.374c0 3.754 2.891 6.84 6.555 7.141v4.999c0 5.077 4.115 9.207 9.174 9.207h3.78c5.058 0 9.174-4.13 9.174-9.207v-4.973h38.63v4.973c0 5.077 4.116 9.207 9.175 9.207h3.78c5.058 0 9.173-4.13 9.173-9.207v-4.999c3.664-.3 6.555-3.387 6.555-7.141V40.76c0-4.768-3.259-8.786-7.658-9.93l-1.825-5.014H96z" mask="url(#b)"/>
    </g>
</svg>
