<svg xmlns="http://www.w3.org/2000/svg" width="22" height="14">
    <path fill="#AAA" fill-rule="evenodd" d="M19.285 11.057c-1.9 1.781-4.764 2.942-8.288 2.942-3.525 0-6.388-1.161-8.289-2.942-1.223-1.146-2.712-3.12-2.712-4.06 0-.94 1.183-2.783 2.712-4 1.924-1.53 5.064-3.003 8.289-3.003 3.225 0 6.364 1.473 8.288 3.003 1.53 1.217 2.712 3.06 2.712 4s-1.49 2.914-2.712 4.06zm-8.288-9.013a4.95 4.95 0 0 0-4.946 4.953 4.95 4.95 0 0 0 4.946 4.952 4.95 4.95 0 0 0 4.945-4.952 4.95 4.95 0 0 0-4.945-4.953zm0 8.284a3.331 3.331 0 0 1-3.192-4.263c.289.286.686.463 1.123.463a1.601 1.601 0 0 0 1.139-2.726c.296-.087.607-.135.93-.135a3.332 3.332 0 0 1 0 6.661z"/>
</svg>
