<?xml version="1.0" encoding="utf-8"?>
<!-- Generator: Adobe Illustrator 24.0.1, SVG Export Plug-In . SVG Version: 6.00 Build 0)  -->
<svg version="1.2" baseProfile="tiny" id="레이어_1"
	 xmlns="http://www.w3.org/2000/svg" xmlns:xlink="http://www.w3.org/1999/xlink" x="0px" y="0px" viewBox="0 0 48.2 29"
	 xml:space="preserve">
<g>
	<path fill="#999DA6" d="M36.9,0H9.3L9.1,1.4c-0.3,2.4,1.5,5.2,7.7,5.2h15.2c4.5,0,4.5,1,3.8,3.5c0,0-2.4,9.4-3.1,12.3
		c-1.8,0-17.9,0-17.9,0c-1.3,0-3.4-0.3-2.9-2.5c0.6-2.2,2.8-2.7,4.6-2.7h10.7l6.5-6.5H16.7C4,10.8,1,17.3,0.3,20.1
		C-1.1,25.5,2.4,29,9.2,29h29.5c2.8,0,4.4-1.2,5.1-3.8l4-15.7C49.7,1.6,44.9,0,36.9,0z"/>
</g>
</svg>
